<svg width="638" height="552" viewBox="0 0 638 552" fill="none" xmlns="http://www.w3.org/2000/svg">
<path fill-rule="evenodd" clip-rule="evenodd" d="M606.172 0.0494351C413.557 0.0494351 402.809 0 397.707 0C391.865 0 388.2 0 383.346 0C375.323 0 364.029 0.0494361 334.065 0.098874L280.871 0.247514L259.475 0.296953L255.564 21.2399L238.428 112.785H106.683H85.4357L81.3742 133.777L5.94335 521.246L0 551.942H31.3018H170.574H233.376H370.665H407.267L394.886 517.434L388.05 498.421L386.367 493.717L363.733 430.642C371.508 431.384 379.334 431.78 387.159 431.78C411.477 431.78 435.101 428.116 457.488 420.293C479.034 412.767 499.191 401.479 517.516 386.033C535.645 370.734 550.155 353.108 561.349 333.602C572.789 313.549 580.714 291.517 585.32 267.85L631.481 30.7955L637.473 0.098874H606.172V0.0494351ZM233.376 500.253H170.574H62.6031L127.93 164.424H245.954H297.416H409.15L282.06 318.253L272.75 329.541L277.702 343.404L334.065 500.253H233.376ZM534.655 258.098C531.137 276.12 525.145 292.805 516.526 307.905C508.255 322.363 497.557 335.384 484.234 346.622C470.813 357.96 456.151 366.178 440.549 371.624C424.057 377.368 406.129 380.043 387.159 380.043C372.054 380.043 357.492 378.507 343.773 374.992L331.144 339.84L483.838 155.017L518.755 112.736H463.928H297.416H290.827L302.27 51.6392L334.017 51.5404C363.981 51.4412 375.271 51.4412 383.296 51.4412C388.15 51.4412 391.815 51.4412 397.659 51.4412C425.148 51.4908 481.065 51.6392 574.82 51.6888L534.655 258.098Z" fill="#00B1C9"/>
</svg>
